<svg version="1.1" id="Layer_1" xmlns="http://www.w3.org/2000/svg" xmlns:xlink="http://www.w3.org/1999/xlink" x="0px" y="0px"
	 viewBox="0 0 2073.83 527.67" style="enable-background:new 0 0 2073.83 527.67;" xml:space="preserve">
<style type="text/css">
	.st0{fill:#FFFFFF;}
</style>
<g>
	<polygon class="st0" points="94.02,276.79 90.69,313.05 133.98,313.05 131.02,276.79 131.02,96.62 162.83,96.62 196.87,100.32 
		193.17,65.91 31.86,65.91 28.16,100.32 62.2,96.62 94.02,96.62 	"/>
	<path class="st0" d="M223.51,313.05h37V193.92c0-8.51,22.2-35.89,26.27-35.89c8.88,0,37,9.62,37,14.43v140.59h36.62V155.08
		c0-11.47-48.46-28.49-63.26-28.49c-8.88,0-28.12,25.53-37,38.11l0.37-109.51l-39.95,5.55l2.96,38.11V313.05z"/>
	<path class="st0" d="M456.23,126.96c-12.95,0-52.17,29.6-55.5,35.52c-2.96,5.92-3.33,25.53-3.33,64.75
		c0,67.33,31.82,87.68,105.44,87.68c5.18,0,9.99,0,14.8-0.37l7.03-35.89c-12.21,1.48-23.31,2.59-31.45,2.59
		c-36.63,0-54.01-9.25-58.09-34.41c44.03-24.05,91.01-51.05,91.01-57.72v-32.19C526.16,148.05,477.69,126.96,456.23,126.96z
		 M491.38,186.15c0,3.33-29.6,22.57-57.34,37.74c0-34.78,0.74-54.01,1.48-55.86c0.74-1.48,12.95-10.36,14.43-10.36
		c5.18,0,41.44,12.21,41.44,17.02V186.15z"/>
	<path class="st0" d="M698.93,169.88c-41.44-20.35-52.54-29.97-52.54-45.88c0-7.4,0.37-11.84,1.11-13.32
		c0.74-1.11,21.83-17.76,23.31-17.76c10.73,0,58.82,11.47,86.2,18.87V74.42c-34.03-6.29-70.29-12.95-89.53-12.95
		c-8.88,0-52.9,36.25-56.23,43.29c-2.22,4.07-2.22,16.65-2.22,25.9c0,29.6,20.35,48.47,62.16,69.18
		c42.55,20.72,55.86,29.97,55.86,49.21c0,10.73-0.37,18.5-1.11,19.98c-0.74,1.11-21.46,17.39-23.67,17.39
		c-10.73,0-46.25-11.84-91.38-29.6v38.48c39.96,14.43,74.37,22.94,94.34,22.94c9.25,0,53.28-34.41,56.97-42.92
		c1.85-4.07,2.22-22.94,2.22-35.89C764.42,207.98,742.22,190.96,698.93,169.88z"/>
	<polygon class="st0" points="833.23,313.05 833.23,128.07 793.64,133.62 796.61,170.61 796.61,313.05 	"/>
	<polygon class="st0" points="843.65,84.03 814.2,56.46 784.95,84.42 812.01,109.63 	"/>
	<path class="st0" d="M908.7,233.51c0-45.88,0.74-63.63,1.48-65.49c0.74-1.48,13.32-10.36,15.17-10.36
		c7.03,0,34.41,5.55,63.27,13.69v-36.63c-21.83-4.07-46.25-7.77-57.35-7.77c-12.95,0-52.54,29.97-55.49,35.52
		c-2.96,5.92-3.7,31.08-3.7,71.03c0,58.45,32.19,81.39,99.15,81.39c5.55,0,10.73,0,14.8-0.37l7.03-35.89
		c-12.21,1.48-18.13,2.59-25.53,2.59C926.09,281.24,908.7,270.88,908.7,233.51z"/>
	<path class="st0" d="M1093.32,158.4c4.07,0,29.6,14.8,29.6,17.39c0,2.96-17.39,22.2-39.22,45.88
		c16.28,30.34,30.34,60.68,42.18,91.38h39.96c-14.8-37-29.97-67.33-48.1-99.89c23.31-22.94,42.55-44.02,42.55-48.83
		c0-8.88-49.58-38.11-56.97-38.11c-7.4,0-31.82,31.82-43.29,48.1l0.37-119.13l-39.59,5.18l2.96,38.48v214.21h37V204.28
		C1060.76,196.14,1089.99,158.4,1093.32,158.4z"/>
	<polygon class="st0" points="1281.64,276.79 1278.31,313.05 1321.6,313.05 1318.64,276.79 1318.64,96.62 1350.45,96.62 
		1384.49,100.32 1380.79,65.91 1219.48,65.91 1215.78,100.32 1249.82,96.62 1281.64,96.62 	"/>
	<polygon class="st0" points="1458.19,82.28 1427.21,56.45 1399.61,86.04 1428.08,109.66 	"/>
	<polygon class="st0" points="1447.76,313.05 1447.76,128.07 1408.17,133.62 1411.13,170.61 1411.13,313.05 	"/>
	<path class="st0" d="M1689.35,313.05h36.62V155.08c0-11.47-48.1-28.49-63.63-28.49c-8.51,0-21.09,12.58-35.89,29.6
		c-18.87-14.8-47.36-29.6-60.31-29.6c-8.88,0-28.12,25.53-38.11,39.59l-1.48-37.74l-36.63,5.18l2.96,37v142.44h36.63V193.92
		c0-8.51,22.57-35.89,26.27-35.89c9.25,0,35.52,14.43,35.52,19.24v135.78h36.62V184.67c0-4.81,19.98-26.64,23.68-26.64
		c9.99,0,37.74,9.62,37.74,14.43V313.05z"/>
	<path class="st0" d="M1883.22,314.53l7.03-35.89c-12.21,1.48-23.31,2.59-31.45,2.59c-36.62,0-54.01-9.25-58.08-34.41
		c44.03-24.05,91.01-51.05,91.01-57.72v-32.19c0-8.88-48.47-29.97-69.93-29.97c-12.95,0-52.16,29.6-55.49,35.52
		c-2.96,5.92-3.33,25.53-3.33,64.75c0,67.33,31.82,87.68,105.44,87.68C1873.6,314.9,1878.41,314.9,1883.22,314.53z M1801.09,168.02
		c0.74-1.48,12.95-10.36,14.43-10.36c5.18,0,41.44,12.21,41.44,17.02v11.47c0,3.33-29.6,22.57-57.35,37.74
		C1799.61,189.11,1800.35,169.88,1801.09,168.02z"/>
	<path class="st0" d="M2045.64,255.71c0-24.79-18.13-37.74-50.32-51.79c-28.49-12.21-38.11-18.5-38.11-28.12
		c0-5.18,0.37-9.25,1.11-10.36c0.37-1.48,8.88-7.77,11.1-7.77c7.4,0,41.07,3.33,70.66,12.21v-35.89
		c-25.53-4.44-55.13-6.29-70.66-6.29c-8.88,0-41.43,24.79-45.51,32.19c-2.59,4.07-2.59,10.73-2.59,19.98
		c0,26.27,20.72,39.59,49.58,52.91c29.6,13.69,38.48,18.87,38.48,29.6c0,8.14-0.37,13.32-0.74,14.8c-0.74,1.11-9.25,7.77-11.1,7.77
		c-6.29,0-35.52-4.07-72.52-15.91v36.62c31.44,8.14,55.86,11.1,72.14,11.1c8.88,0,42.92-25.16,46.99-32.19
		C2046.01,280.5,2045.64,264.22,2045.64,255.71z"/>
	<path class="st0" d="M566.03,394.68c3.13-2,6.68-2.99,10.65-2.99c2.2,0,4.28,0.3,6.24,0.91c1.96,0.6,3.74,1.5,5.33,2.69
		c1.59,1.19,2.94,2.64,4.04,4.34c1.1,1.7,1.85,3.68,2.25,5.92h10.5c-0.58-3.7-1.7-6.99-3.36-9.87c-1.66-2.88-3.76-5.33-6.29-7.33
		c-2.53-2.01-5.39-3.53-8.56-4.57s-6.59-1.56-10.24-1.56c-5.94,0-11.25,1.42-15.91,4.25c-4.66,2.84-8.34,6.9-11.03,12.18
		c-2.69,5.28-4.04,11.6-4.04,18.96c0,7.33,1.34,13.65,4.02,18.94c2.68,5.29,6.35,9.36,11.02,12.19c4.66,2.84,9.98,4.25,15.94,4.25
		c3.79,0,7.29-0.56,10.5-1.68c3.21-1.12,6.06-2.71,8.56-4.76c2.5-2.05,4.55-4.5,6.16-7.33c1.6-2.84,2.68-5.95,3.24-9.33l-10.5-0.03
		c-0.42,2.2-1.19,4.14-2.3,5.84c-1.11,1.69-2.46,3.12-4.05,4.29s-3.37,2.05-5.33,2.64c-1.96,0.59-4.03,0.89-6.21,0.89
		c-3.93,0-7.46-0.99-10.6-2.96s-5.61-4.89-7.42-8.75c-1.81-3.86-2.71-8.59-2.71-14.2c0-5.56,0.9-10.27,2.71-14.13
		C560.44,399.6,562.9,396.67,566.03,394.68z"/>
	<path class="st0" d="M651.84,401.87c-2.66-1.46-5.76-2.19-9.3-2.19c-4.01,0-7.27,0.82-9.75,2.46c-2.49,1.64-4.34,3.85-5.55,6.63
		h-0.64v-25.63h-9.92v68.89h10.06v-30.68c0-2.74,0.53-5.07,1.6-7.01c1.06-1.94,2.53-3.41,4.41-4.42s4-1.51,6.37-1.51
		c3.48,0,6.19,1.05,8.14,3.15c1.95,2.1,2.93,5.04,2.93,8.83v31.65h10.06v-32.86c0-4.31-0.73-7.9-2.2-10.78
		C656.56,405.5,654.5,403.33,651.84,401.87z"/>
	<path class="st0" d="M697.07,399.59c-3.03,0-5.74,0.8-8.12,2.4c-2.39,1.61-4.05,3.8-4.99,6.58h-0.54v-8.21h-9.72v51.67h10.06
		v-31.55c0-2.24,0.54-4.24,1.61-6c1.08-1.76,2.54-3.14,4.39-4.14c1.85-1,3.96-1.5,6.34-1.5c1.03,0,2.06,0.07,3.09,0.22
		c1.03,0.15,1.75,0.28,2.15,0.39v-9.62c-0.49-0.07-1.17-0.12-2.04-0.17C698.45,399.61,697.7,399.59,697.07,399.59z"/>
	<path class="st0" d="M742.65,403.02c-3.61-2.22-7.84-3.33-12.68-3.33c-4.84,0-9.07,1.11-12.68,3.33c-3.61,2.22-6.41,5.34-8.41,9.35
		c-2,4.01-2.99,8.7-2.99,14.06c0,5.34,1,10,2.99,13.99c2,3.99,4.8,7.1,8.41,9.32c3.61,2.22,7.84,3.33,12.68,3.33
		c4.84,0,9.07-1.11,12.68-3.33c3.61-2.22,6.41-5.33,8.41-9.32c2-3.99,2.99-8.66,2.99-13.99c0-5.36-1-10.05-2.99-14.06
		C749.07,408.36,746.26,405.24,742.65,403.02z M742.4,435.51c-1,2.76-2.53,4.97-4.59,6.63c-2.06,1.66-4.67,2.49-7.81,2.49
		c-3.16,0-5.78-0.83-7.85-2.49c-2.07-1.66-3.61-3.87-4.61-6.63c-1-2.76-1.5-5.8-1.5-9.12c0-3.3,0.5-6.33,1.5-9.1
		c1-2.77,2.53-5,4.61-6.68c2.07-1.68,4.69-2.52,7.85-2.52c3.14,0,5.74,0.84,7.81,2.52c2.06,1.68,3.59,3.91,4.59,6.68
		c1,2.77,1.5,5.8,1.5,9.1C743.9,429.72,743.4,432.76,742.4,435.51z"/>
	<path class="st0" d="M800.04,401.89c-2.65-1.47-5.73-2.2-9.25-2.2c-3.88,0-7.09,0.83-9.64,2.49c-2.55,1.66-4.41,3.86-5.6,6.59
		h-0.64v-8.41h-9.65v51.67h10.06v-30.68c0-2.74,0.52-5.07,1.56-7.01c1.04-1.94,2.47-3.41,4.27-4.42c1.81-1.01,3.88-1.51,6.21-1.51
		c3.41,0,6.09,1.06,8.04,3.18c1.95,2.12,2.93,5.05,2.93,8.8v31.65h10.06v-32.86c0-4.26-0.73-7.84-2.19-10.73
		C804.74,405.54,802.68,403.36,800.04,401.89z"/>
	<rect x="821.84" y="400.36" class="st0" width="10.06" height="51.67"/>
	<path class="st0" d="M826.91,380.38c-1.75,0-3.25,0.59-4.49,1.77c-1.24,1.18-1.87,2.6-1.87,4.25c0,1.64,0.62,3.04,1.87,4.22
		c1.24,1.18,2.74,1.77,4.49,1.77c1.75,0,3.25-0.59,4.49-1.77c1.24-1.18,1.87-2.59,1.87-4.25c0-1.64-0.62-3.04-1.87-4.22
		C830.16,380.97,828.66,380.38,826.91,380.38z"/>
	<path class="st0" d="M859.9,410.37c2.1-1.47,4.55-2.2,7.35-2.2c3.2,0,5.77,0.88,7.68,2.62c1.92,1.75,3.15,3.84,3.68,6.26h9.79
		c-0.36-3.47-1.49-6.51-3.38-9.12c-1.89-2.6-4.38-4.62-7.45-6.07c-3.07-1.45-6.57-2.17-10.5-2.17c-4.87,0-9.1,1.13-12.68,3.4
		c-3.59,2.27-6.37,5.41-8.34,9.43c-1.97,4.03-2.96,8.66-2.96,13.91c0,5.18,0.96,9.78,2.89,13.79c1.93,4.02,4.69,7.16,8.29,9.44
		c3.6,2.28,7.9,3.41,12.9,3.41c4.08,0,7.64-0.75,10.68-2.25c3.04-1.5,5.47-3.57,7.28-6.19c1.82-2.62,2.9-5.61,3.26-8.95h-9.79
		c-0.43,1.86-1.17,3.45-2.24,4.78c-1.07,1.32-2.38,2.34-3.94,3.04c-1.56,0.71-3.29,1.06-5.2,1.06c-2.85,0-5.32-0.75-7.42-2.25
		c-2.1-1.5-3.72-3.62-4.86-6.36c-1.14-2.73-1.72-5.99-1.72-9.75c0-3.68,0.58-6.87,1.75-9.57
		C856.17,413.92,857.8,411.84,859.9,410.37z"/>
	<rect x="899.21" y="383.14" class="st0" width="10.06" height="68.89"/>
	<path class="st0" d="M927.86,380.38c-1.75,0-3.25,0.59-4.49,1.77c-1.24,1.18-1.87,2.6-1.87,4.25c0,1.64,0.62,3.04,1.87,4.22
		c1.24,1.18,2.74,1.77,4.49,1.77c1.75,0,3.25-0.59,4.49-1.77c1.24-1.18,1.87-2.59,1.87-4.25c0-1.64-0.62-3.04-1.87-4.22
		C931.11,380.97,929.61,380.38,927.86,380.38z"/>
	<rect x="922.79" y="400.36" class="st0" width="10.06" height="51.67"/>
	<path class="st0" d="M981.15,401.89c-2.65-1.47-5.73-2.2-9.25-2.2c-3.88,0-7.09,0.83-9.64,2.49c-2.55,1.66-4.41,3.86-5.6,6.59
		h-0.64v-8.41h-9.65v51.67h10.06v-30.68c0-2.74,0.52-5.07,1.56-7.01c1.04-1.94,2.47-3.41,4.27-4.42s3.88-1.51,6.21-1.51
		c3.41,0,6.09,1.06,8.04,3.18c1.95,2.12,2.93,5.05,2.93,8.8v31.65h10.06v-32.86c0-4.26-0.73-7.84-2.19-10.73
		C985.84,405.54,983.79,403.36,981.15,401.89z"/>
	<path class="st0" d="M1038.06,408.74h-0.74c-0.6-1.08-1.46-2.32-2.57-3.73c-1.11-1.41-2.65-2.65-4.63-3.72s-4.56-1.6-7.77-1.6
		c-4.15,0-7.86,1.05-11.13,3.14c-3.27,2.1-5.85,5.11-7.72,9.03c-1.87,3.92-2.81,8.63-2.81,14.13c0,5.49,0.95,10.12,2.84,13.88
		c1.89,3.76,4.48,6.59,7.74,8.51c3.26,1.92,6.94,2.88,11.02,2.88c3.16,0,5.73-0.49,7.7-1.48c1.97-0.99,3.52-2.15,4.66-3.5
		c1.13-1.35,2-2.57,2.61-3.67h0.64v10.16c0,4.04-1.24,6.98-3.73,8.83c-2.49,1.85-5.64,2.78-9.45,2.78c-2.78,0-5.05-0.39-6.81-1.18
		c-1.76-0.79-3.15-1.73-4.17-2.84c-1.02-1.11-1.83-2.16-2.44-3.15l-8.65,3.57c0.92,2.11,2.31,4.05,4.17,5.82
		c1.86,1.77,4.27,3.19,7.22,4.27c2.95,1.08,6.48,1.61,10.58,1.61c4.39,0,8.35-0.69,11.86-2.05c3.51-1.37,6.3-3.48,8.36-6.32
		c2.06-2.85,3.09-6.49,3.09-10.93v-52.81h-9.86V408.74z M1036.43,435.03c-1.04,2.55-2.57,4.5-4.57,5.85
		c-2.01,1.36-4.46,2.04-7.35,2.04c-2.98,0-5.49-0.72-7.52-2.15c-2.03-1.43-3.56-3.43-4.59-5.99c-1.03-2.56-1.55-5.53-1.55-8.91
		c0-3.3,0.51-6.28,1.53-8.95c1.02-2.67,2.54-4.78,4.56-6.34c2.02-1.56,4.54-2.34,7.57-2.34c2.94,0,5.4,0.75,7.4,2.24
		c2,1.49,3.51,3.56,4.54,6.21c1.03,2.65,1.55,5.71,1.55,9.18C1037.99,429.42,1037.47,432.48,1036.43,435.03z"/>
	<path class="st0" d="M1108.33,443.59c-0.61,0.11-1.31,0.17-2.12,0.17c-1.1,0-2.11-0.17-3.05-0.52c-0.93-0.35-1.69-1.01-2.27-1.98
		c-0.58-0.97-0.87-2.44-0.87-4.39v-28.43h10.6v-8.07h-10.6v-12.38h-10.06v12.38h-7.57v8.07h7.57v30.51c0,3.12,0.71,5.71,2.12,7.77
		s3.26,3.59,5.55,4.58c2.29,0.99,4.76,1.46,7.4,1.41c1.61-0.02,2.96-0.15,4.04-0.39c1.08-0.23,1.91-0.46,2.49-0.69l-1.82-8.31
		C1109.41,443.38,1108.94,443.47,1108.33,443.59z"/>
	<path class="st0" d="M1157.96,401.87c-2.66-1.46-5.76-2.19-9.3-2.19c-4.01,0-7.27,0.82-9.75,2.46c-2.49,1.64-4.34,3.85-5.55,6.63
		h-0.64v-25.63h-9.92v68.89h10.06v-30.68c0-2.74,0.53-5.07,1.6-7.01c1.06-1.94,2.53-3.41,4.41-4.42c1.87-1.01,4-1.51,6.37-1.51
		c3.48,0,6.19,1.05,8.14,3.15c1.95,2.1,2.93,5.04,2.93,8.83v31.65h10.06v-32.86c0-4.31-0.73-7.9-2.2-10.78
		C1162.69,405.5,1160.62,403.33,1157.96,401.87z"/>
	<path class="st0" d="M1217.22,405.68c-2.18-2.06-4.63-3.58-7.37-4.54c-2.74-0.96-5.56-1.45-8.48-1.45c-4.8,0-8.99,1.13-12.57,3.4
		s-6.36,5.42-8.34,9.45s-2.98,8.7-2.98,13.99c0,5.36,0.99,10.03,2.98,14.01c1.98,3.98,4.81,7.06,8.48,9.25
		c3.66,2.19,8.04,3.28,13.13,3.28c3.77,0,7.13-0.58,10.07-1.73c2.95-1.16,5.4-2.78,7.37-4.88c1.96-2.1,3.33-4.55,4.09-7.35
		l-9.52-1.72c-0.6,1.61-1.48,2.97-2.62,4.07c-1.14,1.1-2.5,1.92-4.07,2.47c-1.57,0.55-3.31,0.82-5.21,0.82
		c-2.94,0-5.51-0.64-7.7-1.9c-2.2-1.27-3.91-3.11-5.13-5.53c-1.14-2.25-1.72-4.97-1.8-8.11h36.7v-3.56c0-4.69-0.63-8.67-1.88-11.96
		C1221.11,410.41,1219.39,407.74,1217.22,405.68z M1187.57,421.69c0.12-2.22,0.65-4.3,1.65-6.24c1.13-2.21,2.74-4,4.84-5.38
		c2.1-1.38,4.56-2.07,7.38-2.07c2.6,0,4.87,0.59,6.81,1.78c1.94,1.19,3.45,2.81,4.52,4.86c1.08,2.05,1.61,4.4,1.61,7.05H1187.57z"/>
	<polygon class="st0" points="1271.75,383.14 1261.35,383.14 1261.35,452.03 1302.96,452.03 1302.96,443.08 1271.75,443.08 	"/>
	<path class="st0" d="M1348.44,403.02c-3.61-2.22-7.84-3.33-12.68-3.33s-9.07,1.11-12.68,3.33c-3.61,2.22-6.41,5.34-8.41,9.35
		c-2,4.01-2.99,8.7-2.99,14.06c0,5.34,1,10,2.99,13.99c2,3.99,4.8,7.1,8.41,9.32c3.61,2.22,7.84,3.33,12.68,3.33
		s9.07-1.11,12.68-3.33c3.61-2.22,6.41-5.33,8.41-9.32s2.99-8.66,2.99-13.99c0-5.36-1-10.05-2.99-14.06
		S1352.05,405.24,1348.44,403.02z M1348.19,435.51c-1,2.76-2.53,4.97-4.59,6.63c-2.06,1.66-4.67,2.49-7.81,2.49
		c-3.16,0-5.78-0.83-7.85-2.49c-2.07-1.66-3.61-3.87-4.61-6.63c-1-2.76-1.5-5.8-1.5-9.12c0-3.3,0.5-6.33,1.5-9.1
		c1-2.77,2.53-5,4.61-6.68c2.07-1.68,4.69-2.52,7.85-2.52c3.14,0,5.74,0.84,7.81,2.52c2.06,1.68,3.59,3.91,4.59,6.68
		c1,2.77,1.5,5.8,1.5,9.1C1349.69,429.72,1349.19,432.76,1348.19,435.51z"/>
	<path class="st0" d="M1405.83,401.89c-2.65-1.47-5.73-2.2-9.25-2.2c-3.88,0-7.09,0.83-9.64,2.49c-2.55,1.66-4.41,3.86-5.6,6.59
		h-0.64v-8.41h-9.65v51.67h10.06v-30.68c0-2.74,0.52-5.07,1.56-7.01c1.04-1.94,2.47-3.41,4.27-4.42s3.88-1.51,6.21-1.51
		c3.41,0,6.09,1.06,8.04,3.18c1.95,2.12,2.93,5.05,2.93,8.8v31.65h10.06v-32.86c0-4.26-0.73-7.84-2.19-10.73
		C1410.53,405.54,1408.48,403.36,1405.83,401.89z"/>
	<path class="st0" d="M1462.75,408.74h-0.74c-0.6-1.08-1.46-2.32-2.57-3.73c-1.11-1.41-2.65-2.65-4.63-3.72
		c-1.97-1.06-4.56-1.6-7.77-1.6c-4.15,0-7.86,1.05-11.13,3.14c-3.27,2.1-5.85,5.11-7.72,9.03c-1.87,3.92-2.81,8.63-2.81,14.13
		c0,5.49,0.95,10.12,2.84,13.88c1.89,3.76,4.48,6.59,7.74,8.51c3.26,1.92,6.94,2.88,11.02,2.88c3.16,0,5.73-0.49,7.7-1.48
		c1.97-0.99,3.52-2.15,4.66-3.5c1.13-1.35,2-2.57,2.61-3.67h0.64v10.16c0,4.04-1.24,6.98-3.73,8.83c-2.49,1.85-5.64,2.78-9.45,2.78
		c-2.78,0-5.05-0.39-6.81-1.18c-1.76-0.79-3.15-1.73-4.17-2.84c-1.02-1.11-1.83-2.16-2.44-3.15l-8.65,3.57
		c0.92,2.11,2.31,4.05,4.17,5.82c1.86,1.77,4.27,3.19,7.22,4.27c2.95,1.08,6.48,1.61,10.58,1.61c4.39,0,8.35-0.69,11.86-2.05
		c3.51-1.37,6.3-3.48,8.36-6.32c2.06-2.85,3.09-6.49,3.09-10.93v-52.81h-9.86V408.74z M1461.11,435.03
		c-1.04,2.55-2.57,4.5-4.57,5.85c-2.01,1.36-4.46,2.04-7.35,2.04c-2.98,0-5.49-0.72-7.52-2.15c-2.03-1.43-3.56-3.43-4.59-5.99
		c-1.03-2.56-1.55-5.53-1.55-8.91c0-3.3,0.51-6.28,1.53-8.95c1.02-2.67,2.54-4.78,4.56-6.34c2.02-1.56,4.54-2.34,7.57-2.34
		c2.94,0,5.4,0.75,7.4,2.24c2,1.49,3.51,3.56,4.54,6.21c1.03,2.65,1.55,5.71,1.55,9.18
		C1462.68,429.42,1462.16,432.48,1461.11,435.03z"/>
	<path class="st0" d="M1530.21,394.68c3.13-2,6.68-2.99,10.65-2.99c2.2,0,4.28,0.3,6.24,0.91c1.96,0.6,3.74,1.5,5.33,2.69
		c1.59,1.19,2.94,2.64,4.04,4.34c1.1,1.7,1.85,3.68,2.25,5.92h10.5c-0.58-3.7-1.7-6.99-3.36-9.87c-1.66-2.88-3.76-5.33-6.29-7.33
		c-2.53-2.01-5.39-3.53-8.56-4.57c-3.17-1.04-6.59-1.56-10.24-1.56c-5.94,0-11.25,1.42-15.91,4.25c-4.66,2.84-8.34,6.9-11.03,12.18
		c-2.69,5.28-4.04,11.6-4.04,18.96c0,7.33,1.34,13.65,4.02,18.94c2.68,5.29,6.35,9.36,11.02,12.19c4.66,2.84,9.98,4.25,15.94,4.25
		c3.79,0,7.29-0.56,10.5-1.68c3.21-1.12,6.06-2.71,8.56-4.76c2.5-2.05,4.55-4.5,6.16-7.33c1.6-2.84,2.68-5.95,3.24-9.33l-10.5-0.03
		c-0.42,2.2-1.19,4.14-2.3,5.84c-1.11,1.69-2.46,3.12-4.05,4.29c-1.59,1.17-3.37,2.05-5.33,2.64c-1.96,0.59-4.03,0.89-6.21,0.89
		c-3.93,0-7.46-0.99-10.6-2.96s-5.61-4.89-7.42-8.75c-1.81-3.86-2.71-8.59-2.71-14.2c0-5.56,0.9-10.27,2.71-14.13
		C1524.61,399.6,1527.08,396.67,1530.21,394.68z"/>
	<path class="st0" d="M1615.3,403.02c-3.61-2.22-7.84-3.33-12.68-3.33c-4.84,0-9.07,1.11-12.68,3.33c-3.61,2.22-6.41,5.34-8.41,9.35
		c-2,4.01-2.99,8.7-2.99,14.06c0,5.34,1,10,2.99,13.99c2,3.99,4.8,7.1,8.41,9.32c3.61,2.22,7.84,3.33,12.68,3.33
		c4.84,0,9.07-1.11,12.68-3.33c3.61-2.22,6.41-5.33,8.41-9.32c2-3.99,2.99-8.66,2.99-13.99c0-5.36-1-10.05-2.99-14.06
		C1621.71,408.36,1618.91,405.24,1615.3,403.02z M1615.04,435.51c-1,2.76-2.53,4.97-4.59,6.63c-2.06,1.66-4.67,2.49-7.81,2.49
		c-3.16,0-5.78-0.83-7.85-2.49c-2.07-1.66-3.61-3.87-4.61-6.63c-1-2.76-1.5-5.8-1.5-9.12c0-3.3,0.5-6.33,1.5-9.1
		c1-2.77,2.53-5,4.61-6.68c2.07-1.68,4.69-2.52,7.85-2.52c3.14,0,5.74,0.84,7.81,2.52c2.06,1.68,3.59,3.91,4.59,6.68
		c1,2.77,1.5,5.8,1.5,9.1C1616.54,429.72,1616.04,432.76,1615.04,435.51z"/>
	<polygon class="st0" points="1656.44,440.12 1655.9,440.12 1642.81,400.36 1632.01,400.36 1650.78,452.03 1661.55,452.03 
		1680.28,400.36 1669.49,400.36 	"/>
	<rect x="1689.74" y="400.36" class="st0" width="10.06" height="51.67"/>
	<path class="st0" d="M1694.82,380.38c-1.75,0-3.25,0.59-4.49,1.77c-1.24,1.18-1.87,2.6-1.87,4.25c0,1.64,0.62,3.04,1.87,4.22
		c1.24,1.18,2.74,1.77,4.49,1.77c1.75,0,3.25-0.59,4.49-1.77c1.24-1.18,1.87-2.59,1.87-4.25c0-1.64-0.62-3.04-1.87-4.22
		C1698.06,380.97,1696.57,380.38,1694.82,380.38z"/>
	<path class="st0" d="M1748.2,408.74h-0.61c-0.6-1.08-1.45-2.32-2.54-3.73c-1.09-1.41-2.61-2.65-4.58-3.72
		c-1.96-1.06-4.55-1.6-7.75-1.6c-4.15,0-7.86,1.05-11.13,3.16c-3.28,2.11-5.85,5.15-7.72,9.12c-1.87,3.97-2.81,8.74-2.81,14.33
		c0,5.58,0.92,10.37,2.78,14.35c1.85,3.98,4.41,7.04,7.67,9.19c3.26,2.14,6.98,3.21,11.15,3.21c3.14,0,5.7-0.53,7.67-1.58
		c1.97-1.06,3.53-2.29,4.66-3.7c1.13-1.41,2-2.67,2.61-3.77h0.84v8.04h9.82v-68.89h-10.06V408.74z M1746.8,435.75
		c-1.04,2.74-2.57,4.87-4.57,6.41c-2.01,1.54-4.46,2.3-7.35,2.3c-2.98,0-5.49-0.8-7.52-2.41c-2.03-1.6-3.56-3.79-4.59-6.54
		c-1.03-2.76-1.55-5.86-1.55-9.32c0-3.41,0.51-6.47,1.53-9.18c1.02-2.71,2.54-4.85,4.56-6.43c2.02-1.57,4.54-2.35,7.57-2.35
		c2.94,0,5.4,0.75,7.4,2.25c2,1.5,3.51,3.6,4.54,6.29c1.03,2.69,1.55,5.83,1.55,9.42C1748.37,429.83,1747.85,433.01,1746.8,435.75z"
		/>
	<path class="st0" d="M1816.7,394.68c3.13-2,6.68-2.99,10.65-2.99c2.2,0,4.28,0.3,6.24,0.91c1.96,0.6,3.74,1.5,5.33,2.69
		c1.59,1.19,2.94,2.64,4.04,4.34c1.1,1.7,1.85,3.68,2.25,5.92h10.5c-0.58-3.7-1.7-6.99-3.36-9.87c-1.66-2.88-3.76-5.33-6.29-7.33
		c-2.53-2.01-5.39-3.53-8.56-4.57s-6.59-1.56-10.24-1.56c-5.94,0-11.25,1.42-15.91,4.25c-4.66,2.84-8.34,6.9-11.03,12.18
		c-2.69,5.28-4.04,11.6-4.04,18.96c0,7.33,1.34,13.65,4.02,18.94c2.68,5.29,6.35,9.36,11.02,12.19c4.66,2.84,9.98,4.25,15.94,4.25
		c3.79,0,7.29-0.56,10.5-1.68c3.21-1.12,6.06-2.71,8.56-4.76c2.5-2.05,4.55-4.5,6.16-7.33c1.6-2.84,2.68-5.95,3.24-9.33l-10.5-0.03
		c-0.43,2.2-1.19,4.14-2.3,5.84c-1.11,1.69-2.46,3.12-4.05,4.29s-3.37,2.05-5.33,2.64s-4.03,0.89-6.21,0.89
		c-3.93,0-7.46-0.99-10.6-2.96c-3.14-1.97-5.61-4.89-7.42-8.75c-1.81-3.86-2.71-8.59-2.71-14.2c0-5.56,0.9-10.27,2.71-14.13
		C1811.11,399.6,1813.58,396.67,1816.7,394.68z"/>
	<path class="st0" d="M1890.73,399.59c-3.03,0-5.73,0.8-8.12,2.4c-2.39,1.61-4.05,3.8-4.99,6.58h-0.54v-8.21h-9.72v51.67h10.06
		v-31.55c0-2.24,0.54-4.24,1.61-6c1.08-1.76,2.54-3.14,4.39-4.14c1.85-1,3.96-1.5,6.34-1.5c1.03,0,2.06,0.07,3.09,0.22
		c1.03,0.15,1.75,0.28,2.15,0.39v-9.62c-0.49-0.07-1.17-0.12-2.03-0.17C1892.1,399.61,1891.35,399.59,1890.73,399.59z"/>
	<path class="st0" d="M1908.82,380.38c-1.75,0-3.25,0.59-4.49,1.77c-1.24,1.18-1.87,2.6-1.87,4.25c0,1.64,0.62,3.04,1.87,4.22
		c1.24,1.18,2.74,1.77,4.49,1.77c1.75,0,3.25-0.59,4.49-1.77c1.24-1.18,1.87-2.59,1.87-4.25c0-1.64-0.62-3.04-1.87-4.22
		C1912.07,380.97,1910.57,380.38,1908.82,380.38z"/>
	<rect x="1903.75" y="400.36" class="st0" width="10.06" height="51.67"/>
	<path class="st0" d="M1952.92,423.1l-8.21-1.88c-2.85-0.67-4.91-1.53-6.19-2.59c-1.28-1.05-1.92-2.44-1.92-4.17
		c0-2,0.95-3.63,2.86-4.89c1.91-1.27,4.28-1.9,7.13-1.9c2.09,0,3.82,0.34,5.22,1.01c1.39,0.67,2.49,1.54,3.31,2.59
		c0.82,1.05,1.42,2.16,1.8,3.33l9.12-1.62c-1.03-4.04-3.15-7.26-6.36-9.67c-3.21-2.41-7.6-3.62-13.19-3.62
		c-3.88,0-7.32,0.64-10.33,1.93c-3.01,1.29-5.36,3.08-7.06,5.36c-1.7,2.29-2.56,4.96-2.56,8.01c0,3.68,1.15,6.72,3.45,9.12
		c2.3,2.4,5.86,4.15,10.68,5.25l8.74,1.92c2.47,0.56,4.3,1.39,5.5,2.49c1.2,1.1,1.8,2.46,1.8,4.07c0,2-0.99,3.68-2.96,5.06
		c-1.97,1.38-4.61,2.07-7.9,2.07c-3.03,0-5.48-0.64-7.37-1.93c-1.88-1.29-3.13-3.2-3.73-5.74l-9.72,1.48
		c0.83,4.58,3.07,8.1,6.73,10.58c3.65,2.48,8.37,3.72,14.16,3.72c4.17,0,7.84-0.68,11.02-2.05c3.17-1.37,5.65-3.26,7.44-5.67
		c1.78-2.41,2.67-5.16,2.67-8.26c0-3.65-1.17-6.62-3.5-8.91C1961.22,425.89,1957.68,424.2,1952.92,423.1z"/>
	<rect x="1978.09" y="400.36" class="st0" width="10.06" height="51.67"/>
	<path class="st0" d="M1983.16,380.38c-1.75,0-3.25,0.59-4.49,1.77c-1.24,1.18-1.87,2.6-1.87,4.25c0,1.64,0.62,3.04,1.87,4.22
		c1.24,1.18,2.74,1.77,4.49,1.77c1.75,0,3.25-0.59,4.49-1.77c1.24-1.18,1.87-2.59,1.87-4.25c0-1.64-0.62-3.04-1.87-4.22
		C1986.41,380.97,1984.92,380.38,1983.16,380.38z"/>
	<path class="st0" d="M2027.26,423.1l-8.21-1.88c-2.85-0.67-4.91-1.53-6.19-2.59c-1.28-1.05-1.92-2.44-1.92-4.17
		c0-2,0.95-3.63,2.86-4.89s4.28-1.9,7.13-1.9c2.09,0,3.82,0.34,5.22,1.01c1.39,0.67,2.49,1.54,3.31,2.59
		c0.82,1.05,1.42,2.16,1.8,3.33l9.12-1.62c-1.03-4.04-3.15-7.26-6.36-9.67c-3.21-2.41-7.6-3.62-13.19-3.62
		c-3.88,0-7.32,0.64-10.33,1.93c-3.01,1.29-5.36,3.08-7.06,5.36s-2.56,4.96-2.56,8.01c0,3.68,1.15,6.72,3.45,9.12
		c2.3,2.4,5.86,4.15,10.68,5.25l8.74,1.92c2.47,0.56,4.3,1.39,5.5,2.49c1.2,1.1,1.8,2.46,1.8,4.07c0,2-0.99,3.68-2.96,5.06
		c-1.97,1.38-4.61,2.07-7.9,2.07c-3.03,0-5.48-0.64-7.37-1.93s-3.13-3.2-3.73-5.74l-9.72,1.48c0.83,4.58,3.07,8.1,6.73,10.58
		c3.65,2.48,8.37,3.72,14.16,3.72c4.17,0,7.84-0.68,11.02-2.05c3.17-1.37,5.65-3.26,7.43-5.67c1.78-2.41,2.67-5.16,2.67-8.26
		c0-3.65-1.17-6.62-3.5-8.91C2035.56,425.89,2032.02,424.2,2027.26,423.1z"/>
	<rect x="85.17" y="420.25" class="st0" width="419.65" height="6.73"/>
</g>
</svg>
